<?xml version="1.0" standalone="no"?>
<!DOCTYPE svg PUBLIC "-//W3C//DTD SVG 20010904//EN"
 "http://www.w3.org/TR/2001/REC-SVG-20010904/DTD/svg10.dtd">
<svg version="1.0" xmlns="http://www.w3.org/2000/svg"
 width="545.000000pt" height="545.000000pt" viewBox="0 0 545.000000 545.000000"
 preserveAspectRatio="xMidYMid meet">
<metadata>
Created by potrace 1.14, written by Peter Selinger 2001-2017
</metadata>
<g transform="translate(0.000000,545.000000) scale(0.100000,-0.100000)"
fill="#000000" stroke="none">
<path d="M4945 5321 c-16 -15 -88 -99 -159 -185 -71 -86 -136 -156 -145 -156
-48 0 -366 -11 -426 -15 -38 -3 -127 -6 -197 -7 -122 -2 -127 -1 -146 22 l-19
23 -20 -20 c-17 -17 -31 -20 -84 -18 -35 2 -140 6 -234 11 -201 9 -226 9 -457
0 -111 -4 -178 -3 -178 3 0 5 -14 14 -31 20 -32 11 -63 2 -84 -26 -16 -21
-666 -37 -835 -20 -41 5 -93 10 -115 12 -22 2 -74 7 -115 11 -41 5 -273 7
-515 7 -328 -1 -465 2 -540 13 -117 16 -148 9 -164 -38 -6 -17 -9 -33 -7 -37
3 -4 7 -50 11 -102 3 -53 8 -109 10 -125 16 -135 28 -901 14 -909 -6 -4 -6
-13 0 -24 6 -10 13 -125 17 -257 9 -282 9 -233 0 -519 -7 -209 -9 -231 -27
-248 -24 -23 -25 -72 -1 -102 18 -22 19 -44 16 -287 -2 -145 -5 -288 -8 -318
-3 -30 -8 -118 -11 -195 -3 -77 -8 -170 -11 -207 -3 -38 -2 -74 3 -80 4 -7 9
-31 10 -53 4 -69 3 -437 -1 -495 -10 -142 -6 -345 9 -456 7 -48 33 -78 55 -64
49 31 7 -24 -145 -188 -22 -24 -45 -53 -52 -65 -33 -59 5 -127 70 -127 40 0
50 10 267 250 132 146 93 130 313 131 106 0 289 2 407 4 118 2 229 0 246 -4
19 -5 38 -5 49 2 28 15 100 18 500 16 539 -1 696 -1 1025 0 162 1 320 -1 350
-3 30 -2 224 -7 430 -10 206 -4 422 -8 480 -11 429 -17 490 -17 505 -5 19 16
20 64 1 79 -8 7 -14 32 -14 64 -1 29 -3 324 -6 657 -2 333 -8 673 -12 755 -4
83 -7 224 -7 315 1 91 3 432 5 757 l3 593 23 15 c27 20 28 54 4 83 -13 15 -18
34 -16 59 7 87 11 964 5 1031 -7 79 -27 109 -60 94 -13 -7 -44 -8 -85 -3 -5 1
44 55 110 121 65 67 122 129 126 138 14 36 8 73 -17 97 -34 35 -81 33 -120 -4z
m-2286 -417 c52 -2 96 -5 97 -7 1 -1 6 -47 9 -102 4 -55 9 -118 11 -140 2 -22
7 -225 10 -452 l6 -411 -68 -4 c-89 -4 -833 1 -899 6 -27 2 -62 4 -77 5 l-26
1 5 158 c3 86 6 333 7 548 1 253 5 391 11 391 52 1 221 16 225 20 5 5 535 -5
689 -13z m-1369 -16 c190 -2 347 -6 350 -10 3 -4 3 -36 -1 -70 -4 -35 -5 -220
-2 -413 3 -192 6 -404 6 -470 l2 -120 -50 1 c-659 19 -824 21 -950 10 l-71 -6
2 227 c5 444 24 818 42 834 4 4 45 10 92 14 46 3 85 7 86 8 1 1 35 1 76 0 40
-1 228 -4 418 -5z m2513 -26 c-8 -41 -7 -270 2 -427 8 -150 8 -167 6 -261 l-1
-62 -111 -143 c-62 -79 -123 -156 -136 -171 l-25 -26 -297 4 c-315 5 -378 7
-387 17 -9 9 -1 602 10 747 3 41 9 116 12 165 4 50 8 99 9 110 1 11 3 33 4 48
l1 28 168 -8 c92 -4 201 -7 242 -7 113 0 484 15 489 19 10 11 19 -8 14 -33z
m472 23 c28 -2 101 -6 164 -9 63 -4 116 -8 118 -10 2 -1 -9 -16 -24 -32 -16
-16 -48 -54 -73 -84 -25 -29 -75 -84 -111 -120 l-66 -66 -45 31 c-25 17 -70
52 -99 78 -29 26 -56 47 -60 47 -18 0 -17 -19 2 -41 61 -69 129 -166 129 -184
0 -17 -289 -275 -307 -275 -6 0 -8 28 -5 68 3 37 5 190 6 341 l1 273 160 -6
c88 -4 183 -9 210 -11z m626 -85 c-6 -121 -5 -328 2 -687 4 -172 6 -313 5
-313 -25 -4 -485 -13 -703 -14 l-290 -1 -3 50 -3 49 69 66 c40 38 100 111 142
175 113 169 200 276 214 262 41 -44 43 -39 -71 -154 -59 -59 -125 -133 -146
-164 -21 -31 -47 -65 -57 -74 -22 -20 -26 -45 -7 -45 6 0 34 21 62 46 27 25
66 55 87 66 21 12 40 29 43 38 3 10 46 58 95 108 l89 91 53 -52 c29 -29 69
-71 89 -92 51 -58 206 -195 218 -195 18 0 12 26 -10 46 -12 10 -54 60 -94 109
-40 50 -90 103 -111 119 -38 28 -104 107 -104 123 0 5 17 22 39 38 21 17 65
64 98 105 33 41 70 85 82 97 20 21 29 53 15 53 -4 0 -25 -17 -48 -37 -23 -21
-69 -62 -103 -91 -33 -29 -71 -68 -84 -87 -29 -42 -38 -43 -72 -7 l-26 27 55
70 c31 39 116 134 190 212 147 155 137 149 259 148 l30 -1 -4 -84z m-2328
-1064 c115 -2 210 -6 213 -8 6 -6 14 -271 14 -458 -1 -224 -6 -308 -22 -328
-7 -9 -54 -67 -104 -127 l-92 -110 -143 -4 c-315 -8 -381 -7 -639 15 -36 3
-71 7 -77 9 -10 3 -13 109 -11 482 1 263 4 489 8 502 6 24 8 24 146 29 76 2
140 5 141 6 3 2 278 -1 566 -8z m935 -1 c7 -7 -104 -142 -177 -218 l-76 -77
-117 122 c-76 80 -121 119 -127 113 -6 -7 13 -40 55 -95 35 -47 80 -109 100
-138 l37 -52 -23 -20 c-62 -54 -191 -183 -245 -245 -33 -38 -70 -81 -83 -95
l-23 -25 6 315 c5 260 8 406 10 411 0 0 90 3 200 6 110 2 201 6 203 7 3 4 256
-5 260 -9z m-2463 -15 c154 1 353 3 442 5 l161 4 4 -42 c3 -23 5 -247 6 -497
l1 -455 -477 1 c-262 0 -497 3 -522 7 -25 4 -54 9 -65 11 -14 2 -21 12 -22 32
-5 53 -9 727 -5 837 l3 109 97 -7 c53 -3 223 -6 377 -5z m2756 -17 c0 -16 2
-39 4 -53 1 -14 6 -77 10 -140 3 -63 8 -131 10 -150 2 -19 5 -172 7 -340 l3
-305 -55 1 c-30 0 -127 4 -215 8 -198 10 -364 10 -565 1 l-155 -7 50 53 c68
73 170 159 228 193 26 16 61 48 79 72 17 24 34 44 37 44 3 0 33 25 66 55 l59
55 49 -48 c27 -26 62 -70 79 -98 17 -28 45 -60 62 -72 18 -12 60 -51 95 -87
35 -36 67 -62 73 -59 13 8 8 19 -55 107 -31 43 -59 87 -62 98 -4 11 -27 39
-51 61 -25 23 -61 64 -82 92 -20 28 -40 53 -44 54 -20 9 -3 35 51 76 32 25 71
60 86 78 15 18 56 63 91 100 35 37 64 72 64 78 0 19 -25 10 -60 -21 -19 -18
-66 -57 -105 -88 -38 -31 -81 -69 -95 -86 -50 -60 -83 -87 -91 -74 -20 34 355
429 407 429 19 0 24 -5 25 -27z m614 13 c302 -8 488 -16 494 -22 3 -3 6 -28 8
-57 5 -79 4 -907 -1 -915 -2 -4 -46 -4 -98 -1 -119 7 -495 3 -663 -6 -124 -8
-157 -8 -233 -6 l-32 1 5 383 c2 210 6 400 9 422 2 22 5 71 7 110 1 38 4 77 6
85 5 17 17 18 498 6z m-2065 -1050 c85 -3 163 -5 173 -6 12 0 16 -4 10 -14
-17 -29 -112 -136 -214 -240 -118 -120 -120 -121 -181 -62 -20 19 -62 48 -94
64 -33 17 -77 46 -99 66 -22 19 -46 36 -52 36 -26 0 -12 -36 20 -54 17 -11 62
-49 98 -85 36 -36 82 -77 102 -91 20 -14 37 -29 37 -34 0 -5 -49 -59 -109
-120 -61 -61 -149 -163 -198 -226 -133 -175 -123 -169 -124 -69 -1 46 -3 104
-5 129 -7 90 -11 576 -5 630 5 46 9 55 26 56 11 1 52 4 90 8 39 3 108 8 155
12 47 3 86 7 87 8 2 1 31 1 65 0 35 -2 133 -5 218 -8z m-1048 -28 l358 -3 1
-45 c1 -25 3 -63 5 -85 4 -51 4 -286 -1 -345 -1 -25 -6 -148 -10 -275 -3 -126
-8 -234 -9 -240 -7 -21 -1002 -11 -1037 10 -3 2 -6 48 -7 102 -1 54 -4 112 -7
128 -6 45 -16 355 -19 557 l-2 177 31 5 c16 3 64 8 105 12 41 3 76 7 77 8 1 1
37 1 80 0 43 -1 239 -4 435 -6z m1479 -158 c-2 -171 -10 -419 -16 -485 -2 -22
-7 -116 -10 -210 -4 -93 -8 -171 -9 -172 -4 -4 -480 -17 -601 -17 -113 1 -297
13 -304 20 -3 2 24 31 60 65 167 157 241 234 319 332 73 91 87 104 100 93 8
-8 60 -41 115 -76 55 -34 123 -80 151 -101 28 -21 56 -39 62 -39 27 0 9 39
-30 68 -24 17 -68 54 -98 82 -30 29 -79 74 -108 101 l-53 48 177 176 c133 133
174 179 165 188 -8 8 -1 22 31 54 23 23 44 41 46 38 3 -2 4 -77 3 -165z m275
155 c218 -11 514 -7 731 10 24 2 45 0 48 -4 5 -8 19 -327 18 -416 0 -27 -3
-167 -6 -310 -4 -143 -6 -270 -7 -282 0 -21 -3 -22 -72 -18 -347 19 -480 21
-729 11 l-176 -7 -1 128 c-1 70 -3 157 -7 193 -12 143 -16 693 -5 700 6 4 22
6 34 5 13 -2 90 -6 172 -10z m1239 -1 c52 -7 494 -7 562 -1 35 4 55 1 60 -6
14 -22 19 -329 8 -522 -12 -212 -12 -224 -14 -361 l-1 -130 -47 4 c-90 8 -508
7 -668 -2 -167 -10 -284 -11 -292 -2 -10 10 -23 801 -15 960 l4 79 181 -7
c100 -4 200 -10 222 -12z m-1914 -1069 c129 -4 252 -8 274 -10 22 -1 54 -3 70
-4 34 -1 29 26 35 -221 1 -58 -1 -186 -6 -285 -9 -192 -9 -339 -1 -435 l6 -60
-107 -1 c-466 -5 -906 2 -919 14 -1 2 -5 215 -9 473 l-7 471 24 21 c12 12 34
22 48 23 14 0 37 2 51 4 14 2 77 6 140 10 63 4 116 8 118 10 1 1 13 1 26 0 12
-2 128 -6 257 -10z m-1111 -29 c157 -2 286 -5 288 -5 2 -1 -24 -36 -57 -78
-66 -88 -107 -128 -201 -199 -98 -75 -100 -77 -124 -111 l-23 -33 -12 23 c-6
12 -33 40 -60 62 -26 22 -55 52 -63 66 -9 15 -37 41 -64 59 -27 18 -72 58
-101 89 -45 49 -52 54 -59 37 -5 -14 4 -29 39 -63 25 -24 62 -70 81 -101 19
-32 45 -64 58 -70 13 -7 34 -28 47 -48 13 -19 40 -48 59 -65 33 -29 34 -32 16
-42 -10 -5 -47 -38 -82 -73 -35 -35 -72 -69 -83 -74 -10 -6 -42 -41 -69 -77
-28 -37 -63 -76 -77 -88 -73 -56 -79 -64 -62 -78 15 -11 13 -16 -15 -49 -25
-28 -40 -37 -71 -39 l-40 -4 3 45 c3 62 1 341 -3 420 -4 74 -5 351 -1 423 1
26 7 51 12 56 5 5 52 13 104 16 52 4 96 8 97 9 1 1 42 1 90 -1 48 -1 216 -4
373 -7z m1786 -2 c87 -4 200 -7 249 -7 85 0 432 12 503 18 l33 2 -5 -346 c-3
-190 -8 -364 -10 -386 -3 -22 -7 -83 -11 -135 -3 -53 -7 -104 -9 -115 -3 -19
-13 -20 -162 -25 -141 -5 -533 -3 -716 4 -38 1 -72 6 -77 11 -4 6 -5 37 -1 70
5 33 6 164 3 290 -4 215 -4 458 2 550 1 22 3 50 4 62 1 15 6 21 19 18 10 -2
90 -6 178 -11z m1264 -1 c110 -8 407 -8 523 0 l67 5 1 -32 c5 -160 -7 -935
-15 -943 -12 -13 -945 -24 -947 -12 -1 5 -2 12 -3 17 -1 4 -6 52 -10 107 -4
55 -9 118 -11 140 -2 22 -6 72 -9 110 -3 39 -8 195 -11 349 l-6 279 158 -7
c87 -3 205 -9 263 -13z m-2673 -515 c-4 -233 -7 -430 -7 -439 0 -11 -9 -14
-32 -13 -18 2 -168 6 -333 10 -376 9 -355 8 -355 12 0 2 48 58 108 125 59 67
125 146 146 174 34 44 42 51 55 40 60 -46 172 -147 205 -183 35 -40 76 -58 76
-34 0 8 -51 73 -71 90 -3 3 -42 51 -87 108 l-82 103 33 42 c19 23 74 92 122
152 73 91 209 233 224 235 2 0 1 -190 -2 -422z"/>
<path d="M2200 4763 c-93 -19 -159 -56 -239 -134 -98 -96 -136 -175 -135 -285
0 -72 4 -88 38 -156 94 -191 292 -307 463 -271 86 17 142 44 214 104 104 88
167 201 168 305 1 54 -29 167 -58 219 -101 184 -254 258 -451 218z m211 -85
c89 -41 157 -104 196 -181 22 -44 25 -64 25 -142 0 -49 -6 -112 -12 -140 -35
-155 -154 -252 -325 -263 -295 -18 -462 192 -396 499 38 175 169 272 356 265
67 -2 92 -8 156 -38z"/>
<path d="M1060 4783 c-213 -44 -372 -227 -373 -432 -2 -167 68 -299 205 -391
94 -62 208 -86 316 -66 78 15 203 88 276 161 113 113 129 328 37 495 -37 67
-137 162 -204 194 -89 42 -177 55 -257 39z m160 -108 c74 -14 156 -68 207
-138 63 -86 80 -208 42 -320 -63 -191 -174 -271 -364 -263 -142 7 -277 99
-326 223 -34 87 -32 208 4 287 80 173 234 247 437 211z"/>
<path d="M3290 2593 c-36 -6 -138 -41 -174 -60 -149 -77 -230 -215 -222 -378
7 -126 52 -220 152 -319 83 -80 182 -128 266 -128 75 0 164 29 228 74 217 153
276 382 152 583 -45 72 -146 163 -214 194 -63 29 -140 43 -188 34z m150 -86
c180 -40 280 -173 274 -367 -5 -183 -84 -302 -233 -350 -60 -19 -85 -22 -163
-17 -145 8 -230 44 -291 120 -96 122 -107 271 -30 419 50 96 131 170 218 200
29 10 173 7 225 -5z"/>
<path d="M4323 1455 c-79 -17 -146 -53 -218 -117 -67 -60 -106 -115 -132 -188
-27 -76 -28 -133 -2 -215 46 -151 117 -243 227 -297 64 -32 72 -33 182 -33
193 1 301 47 383 165 97 139 102 336 12 481 -96 155 -285 240 -452 204z m199
-51 c65 -21 150 -85 186 -140 56 -84 80 -198 60 -288 -25 -114 -132 -243 -247
-298 -58 -27 -69 -30 -130 -24 -125 12 -266 99 -326 202 -33 56 -36 71 -36
169 0 133 27 218 96 294 41 45 130 90 193 98 26 3 48 6 49 7 8 7 116 -7 155
-20z"/>
</g>
</svg>
