<?xml version="1.0" encoding="UTF-8" standalone="no"?>
<!DOCTYPE svg PUBLIC "-//W3C//DTD SVG 1.1//EN" "http://www.w3.org/Graphics/SVG/1.1/DTD/svg11.dtd">
<svg width="100%" height="100%" viewBox="0 0 130 130" version="1.1" xmlns="http://www.w3.org/2000/svg" xmlns:xlink="http://www.w3.org/1999/xlink" xml:space="preserve" xmlns:serif="http://www.serif.com/" style="fill-rule:evenodd;clip-rule:evenodd;stroke-linejoin:round;stroke-miterlimit:2;">
    <g transform="matrix(1,0,0,1,-975.317,-290.795)">
        <g transform="matrix(1,0,0,1,613.418,5.68434e-14)">
            <g transform="matrix(-1.47007e-16,-0.800271,-0.800271,1.47007e-16,710.293,940.728)">
                <path d="M731.348,279.961C747.627,280.292 762.472,285.959 774.645,294.958C777.753,297.255 780.658,299.792 783.477,302.423C796.28,314.368 806.314,330.036 808.085,348.517C808.275,350.505 808.219,352.522 808.163,354.552C807.716,362.78 805.786,370.514 803.247,377.912C799.311,389.38 793.497,399.947 785.305,408.508C779.777,414.286 773.462,419.419 766.232,423.01C755.786,428.199 743.79,430.409 731.348,429.847C710.815,429.179 693.058,419.792 679.419,406.481C668.331,395.661 659.556,382.296 656.241,366.444C655.835,364.502 655.454,362.539 655.302,360.533C655.151,358.558 655.239,356.563 655.332,354.552C656.188,340.203 661.04,327.171 668.55,316.07C671.794,311.274 675.534,306.884 679.614,302.817C693.015,289.456 710.954,280.47 731.348,279.961ZM731.348,285.051C746.711,284.739 761.123,289.259 772.733,297.583C775.734,299.735 778.575,302.119 781.088,304.813C791.986,316.493 797.255,332.373 798.265,349.281C798.369,351.026 798.576,352.775 798.625,354.552C799.024,361.885 798.563,369.06 796.516,375.724C793.322,386.123 786.942,395.113 779.26,402.463C774.163,407.34 768.185,411.181 761.88,414.492C752.646,419.343 742.475,422.846 731.348,423.348C712.1,423.974 693.887,417.276 681.41,404.49C671.371,394.203 665.712,380.145 664.121,365.203C663.933,363.443 663.884,361.666 663.741,359.877C663.601,358.112 663.356,356.349 663.273,354.552C662.481,341.27 665.262,328.597 671.288,317.752C673.996,312.879 677.299,308.346 681.215,304.418C693.912,291.683 711.969,284.567 731.348,285.051Z"/>
            </g>
        </g>
    </g>
</svg>
