<?xml version="1.0" encoding="UTF-8" standalone="no"?>
<!DOCTYPE svg PUBLIC "-//W3C//DTD SVG 1.1//EN" "http://www.w3.org/Graphics/SVG/1.1/DTD/svg11.dtd">
<svg width="100%" height="100%" viewBox="0 0 120 130" version="1.1" xmlns="http://www.w3.org/2000/svg" xmlns:xlink="http://www.w3.org/1999/xlink" xml:space="preserve" xmlns:serif="http://www.serif.com/" style="fill-rule:evenodd;clip-rule:evenodd;stroke-linejoin:round;stroke-miterlimit:2;">
    <g transform="matrix(1,0,0,1,-981.837,-443.023)">
        <g transform="matrix(1,0,0,1,613.418,153.698)">
            <g transform="matrix(1,0,0,1,-613.418,-153.698)">
                <path d="M989.949,563.614C989.949,563.614 995.47,557.882 1005.09,550.513C1007.27,548.846 1009.72,547.401 1012.3,545.649C1013.38,544.912 1014.56,544.326 1015.58,543.41C1018.57,540.716 1020.73,537.013 1023.74,533.781C1024.44,533.021 1025.2,532.296 1025.98,531.584C1029.28,528.558 1032.97,525.805 1036.41,522.643C1037.85,521.32 1039.22,519.912 1040.6,518.509C1042.56,516.506 1044.52,514.496 1046.39,512.416C1048.3,510.305 1050.02,508.094 1051.9,506.009C1052.98,504.809 1054.04,503.602 1055.2,502.517C1059.11,498.885 1063.49,496.082 1067.13,492.767C1068.09,491.89 1068.96,490.943 1069.83,490.029C1074.23,485.397 1078,480.972 1081.45,477.371C1088.7,469.81 1093.59,465.247 1093.59,465.247C1094.23,464.634 1094.26,463.61 1093.64,462.964C1093.03,462.317 1092.01,462.29 1091.36,462.904C1091.36,462.904 1086.55,467.542 1078.62,474.388C1074.85,477.648 1070.23,481.179 1065.37,485.338C1064.42,486.159 1063.43,486.974 1062.5,487.889C1059,491.349 1055.97,495.579 1052.14,499.291C1051,500.4 1049.74,501.392 1048.48,502.41C1046.3,504.179 1044,505.774 1041.8,507.57C1039.62,509.34 1037.51,511.187 1035.41,513.045C1033.94,514.348 1032.46,515.642 1031.06,517.008C1027.73,520.274 1024.78,523.825 1021.59,526.962C1020.84,527.701 1020.08,528.418 1019.28,529.084C1015.89,531.916 1012.08,533.885 1009.24,536.73C1008.27,537.697 1007.62,538.843 1006.83,539.889C1004.95,542.375 1003.38,544.742 1001.6,546.829C993.737,556.056 987.725,561.271 987.725,561.271C987.078,561.884 987.052,562.908 987.665,563.554C988.279,564.201 989.302,564.228 989.949,563.614Z"/>
                <path d="M1095.47,564.916C1095.47,564.916 1089.77,558.699 1082.53,548.091C1080.89,545.698 1079.48,543.032 1077.77,540.213C1077.05,539.027 1076.49,537.754 1075.58,536.624C1072.92,533.297 1069.19,530.716 1065.97,527.324C1065.22,526.526 1064.5,525.679 1063.8,524.813C1060.8,521.133 1058.1,517.061 1054.97,513.229C1053.66,511.625 1052.26,510.083 1050.86,508.533C1048.88,506.322 1046.88,504.121 1044.81,501.99C1042.7,499.83 1040.49,497.856 1038.41,495.727C1037.22,494.501 1036.02,493.3 1034.94,491.997C1031.35,487.637 1028.61,482.853 1025.33,478.799C1024.46,477.727 1023.52,476.746 1022.61,475.766C1018.01,470.797 1013.59,466.502 1010.01,462.611C1002.5,454.439 997.978,448.984 997.978,448.984C997.404,448.301 996.384,448.213 995.702,448.787C995.019,449.361 994.931,450.381 995.505,451.063C995.505,451.063 1000.1,456.451 1006.87,465.259C1010.09,469.452 1013.56,474.54 1017.66,479.928C1018.47,480.992 1019.28,482.089 1020.19,483.127C1023.62,487.053 1027.86,490.57 1031.54,494.86C1032.64,496.141 1033.62,497.533 1034.62,498.92C1036.36,501.33 1037.92,503.85 1039.69,506.29C1041.44,508.696 1043.26,511.042 1045.1,513.381C1046.39,515.021 1047.66,516.663 1049.02,518.229C1052.26,521.969 1055.81,525.332 1058.92,528.913C1059.65,529.757 1060.36,530.61 1061.02,531.492C1063.81,535.239 1065.71,539.359 1068.53,542.551C1069.49,543.636 1070.65,544.412 1071.69,545.324C1074.18,547.493 1076.56,549.338 1078.64,551.359C1087.85,560.318 1092.99,566.995 1092.99,566.995C1093.57,567.677 1094.59,567.765 1095.27,567.192C1095.95,566.618 1096.04,565.598 1095.47,564.916Z"/>
            </g>
        </g>
    </g>
</svg>
